<svg id="Layer_1" data-name="Layer 1" xmlns="http://www.w3.org/2000/svg" viewBox="0 0 340.4 36.24"><defs><style>.cls-1{fill:#231f20;}.cls-2{fill:#9d9795;}.cls-3{fill:#cfb991;}</style></defs><path class="cls-1" d="M204.92,12.58v3.27h-1.15V8.39h2.17a1.83,1.83,0,0,1,2.05,2,1.7,1.7,0,0,1-1,1.72c.61.26.87.79.87,1.87v.29a8.57,8.57,0,0,0,.1,1.58h-1.13a6.4,6.4,0,0,1-.12-1.59V14c0-1-.22-1.42-1.12-1.42Zm0-.95h.75c.83,0,1.15-.41,1.15-1.2a1,1,0,0,0-1-1.09h-.86Z"/><path class="cls-1" d="M212.9,13c0,2-.72,3-2.07,3s-2.06-.93-2.06-3,.82-2.9,2.11-2.9S212.9,11.07,212.9,13Zm-3,0c0,1.32.27,2,.93,2s.9-.68.9-2-.26-1.94-.9-1.94S209.92,11.67,209.92,13Z"/><path class="cls-1" d="M214.65,14.16a.81.81,0,0,0,.83.9.64.64,0,0,0,.72-.7c0-.46-.22-.69-.91-1-1.28-.47-1.61-.92-1.61-1.73a1.56,1.56,0,0,1,1.76-1.58,1.6,1.6,0,0,1,1.78,1.71h-1.1a.72.72,0,0,0-.71-.83.57.57,0,0,0-.62.62c0,.38.2.57.92.83,1.16.44,1.63.88,1.63,1.81,0,1.09-.69,1.71-1.92,1.71a1.69,1.69,0,0,1-1.89-1.78Z"/><path class="cls-1" d="M219.1,13.29c0,.85.12,1.71.9,1.71a.86.86,0,0,0,.85-.84H222a1.9,1.9,0,0,1-2,1.8c-1.78,0-2-1.54-2-3,0-1.8.66-2.91,2.06-2.91,1.59,0,2,1.23,2,2.69,0,.16,0,.4,0,.51Zm1.76-.83c0-.7-.11-1.42-.85-1.42s-.89,1-.9,1.42Z"/><path class="cls-1" d="M222.91,12c0-1.16,0-1.47,0-1.76H224a4.9,4.9,0,0,1,0,.64,1.31,1.31,0,0,1,1.28-.74c.88,0,1.45.54,1.45,1.72v4h-1.14V12.06c0-.6-.15-1-.72-1s-.85.35-.85,1.32v3.46h-1.15Z"/><path class="cls-1" d="M234.32,13.71A2.18,2.18,0,0,1,232.15,16c-2.08,0-2.29-2-2.29-3.88,0-2.33.66-3.81,2.37-3.81a2,2,0,0,1,2.08,2.24h-1.16c0-.25,0-1.25-.93-1.25s-1.16,1.23-1.16,2.85c0,1.46.16,2.87,1.11,2.87s1-1,1-1.28Z"/><path class="cls-1" d="M236.15,13.29c0,.85.12,1.71.9,1.71a.86.86,0,0,0,.85-.84H239a1.88,1.88,0,0,1-2,1.8c-1.78,0-2-1.54-2-3,0-1.8.66-2.91,2.06-2.91,1.59,0,2,1.23,2,2.69,0,.16,0,.4,0,.51Zm1.76-.83c0-.7-.11-1.42-.85-1.42s-.89,1-.9,1.42Z"/><path class="cls-1" d="M240,12c0-1.16,0-1.47,0-1.76h1.1a5.25,5.25,0,0,1,0,.64,1.34,1.34,0,0,1,1.29-.74c.88,0,1.45.54,1.45,1.72v4h-1.14V12.06c0-.6-.15-1-.72-1s-.85.35-.85,1.32v3.46H240Z"/><path class="cls-1" d="M244.4,10.19h.75V8.75h1.14v1.44h.91v1h-.91v3.3c0,.35.06.55.48.55a1.78,1.78,0,0,0,.34,0v.84a2,2,0,0,1-.75.11c-.82,0-1.21-.31-1.21-1.28v-3.5h-.75Z"/><path class="cls-1" d="M248.8,13.29c0,.85.12,1.71.9,1.71a.84.84,0,0,0,.84-.84h1.1a1.88,1.88,0,0,1-2,1.8c-1.78,0-2-1.54-2-3,0-1.8.66-2.91,2.06-2.91,1.59,0,2,1.23,2,2.69,0,.16,0,.4,0,.51Zm1.76-.83c0-.7-.11-1.42-.85-1.42s-.89,1-.9,1.42Z"/><path class="cls-1" d="M252.61,12.11c0-.92,0-1.51,0-1.92h1.09c0,.11,0,.36,0,1a1.47,1.47,0,0,1,1.49-1.05v1.27c-.94,0-1.45.38-1.45,1.44v3h-1.15Z"/><path class="cls-1" d="M258.11,15.85V11.14h-.68v-1h.68V9.56c0-.91.4-1.6,1.49-1.6a2.34,2.34,0,0,1,.5,0V9a1.69,1.69,0,0,0-.33,0c-.39,0-.51.23-.51.68v.56h.83v1h-.83v4.71Z"/><path class="cls-1" d="M264.54,13c0,2-.73,3-2.08,3s-2.06-.93-2.06-3,.82-2.9,2.11-2.9S264.54,11.07,264.54,13Zm-3,0c0,1.32.27,2,.93,2s.9-.68.9-2-.26-1.94-.9-1.94S261.55,11.67,261.55,13Z"/><path class="cls-1" d="M265.48,12.11c0-.92,0-1.51,0-1.92h1.09c0,.11,0,.36,0,1a1.47,1.47,0,0,1,1.49-1.05v1.27c-.94,0-1.46.38-1.46,1.44v3h-1.14Z"/><path class="cls-1" d="M204.75,25.8l-.43,2.05h-1.15l1.75-7.46h1.49l1.79,7.46H207l-.44-2.05Zm1.59-1c-.33-1.57-.58-2.65-.68-3.33h0c-.09.69-.35,1.87-.66,3.33Z"/><path class="cls-1" d="M212.68,20v6.3c0,.62,0,1.2,0,1.53h-1.11c0-.15,0-.47,0-.66a1.18,1.18,0,0,1-1.28.75c-1.18,0-1.67-1-1.67-3,0-1.75.6-2.87,1.87-2.87.65,0,1,.25,1.06.5V20Zm-2,7c.75,0,.92-.6.92-2s-.14-1.87-.86-1.87-.94.47-.94,1.92S210.05,27,210.65,27Z"/><path class="cls-1" d="M214.58,22.19c.38,1.68.82,3.59.94,4.45h0c.1-.8.7-3,1-4.45h1.15l-1.6,5.66h-1.23l-1.51-5.66Z"/><path class="cls-1" d="M221.76,26.69c0,.31,0,.92,0,1.16h-1a4.35,4.35,0,0,1-.06-.57,1.33,1.33,0,0,1-1.29.66,1.49,1.49,0,0,1-1.5-1.66c0-1.12.77-1.84,2.22-1.84a3.86,3.86,0,0,1,.51,0v-.67c0-.37-.07-.81-.7-.81s-.7.43-.73.81h-1.08a1.62,1.62,0,0,1,1.86-1.7c1.16,0,1.76.55,1.76,1.62Zm-1.09-1.4a3.11,3.11,0,0,0-.47,0c-.83,0-1.15.4-1.15.91a.73.73,0,0,0,.73.83c.71,0,.89-.53.89-1.49Z"/><path class="cls-1" d="M223,24c0-1.16,0-1.47,0-1.76h1.1a5.25,5.25,0,0,1,0,.64,1.34,1.34,0,0,1,1.29-.74c.88,0,1.45.54,1.45,1.72v4h-1.14V24.06c0-.6-.16-1-.72-1s-.86.35-.86,1.32v3.46H223Z"/><path class="cls-1" d="M231.7,26a1.83,1.83,0,0,1-1.92,1.94c-1.58,0-2-1.29-2-3,0-1.52.5-2.88,2-2.88A1.76,1.76,0,0,1,231.7,24h-1.15c0-.22-.06-.93-.72-.93S229,23.76,229,25s.23,2,.86,2,.75-.68.78-1Z"/><path class="cls-1" d="M233.52,25.29c0,.85.12,1.71.9,1.71a.85.85,0,0,0,.85-.84h1.1a1.9,1.9,0,0,1-2,1.8c-1.77,0-2-1.54-2-3,0-1.8.66-2.91,2.06-2.91,1.6,0,2,1.23,2,2.69,0,.16,0,.4,0,.51Zm1.76-.83c0-.7-.11-1.42-.85-1.42s-.89,1-.9,1.42Z"/><path class="cls-1" d="M241.23,20v6.3c0,.62,0,1.2,0,1.53h-1.1c0-.15,0-.47,0-.66a1.2,1.2,0,0,1-1.29.75c-1.18,0-1.66-1-1.66-3,0-1.75.59-2.87,1.87-2.87.65,0,.94.25,1.05.5V20Zm-2,7c.75,0,.93-.6.93-2s-.15-1.87-.86-1.87-.95.47-.95,1.92S238.6,27,239.19,27Z"/><path class="cls-1" d="M248.77,25.71A2.17,2.17,0,0,1,246.61,28c-2.08,0-2.29-1.95-2.29-3.88,0-2.33.66-3.81,2.36-3.81a2,2,0,0,1,2.08,2.24h-1.15c0-.25-.05-1.25-.94-1.25s-1.15,1.23-1.15,2.85c0,1.46.15,2.87,1.11,2.87s1-1,1-1.28Z"/><path class="cls-1" d="M253.59,25c0,2-.72,3-2.08,3s-2.06-.93-2.06-3,.83-2.9,2.12-2.9S253.59,23.07,253.59,25Zm-3,0c0,1.32.26,2,.93,2s.9-.68.9-2-.27-1.94-.9-1.94S250.61,23.67,250.61,25Z"/><path class="cls-1" d="M254.55,23.88c0-1.07,0-1.44,0-1.69h1.09a5.53,5.53,0,0,1,0,.63,1.33,1.33,0,0,1,1.25-.73,1.11,1.11,0,0,1,1.16.79,1.49,1.49,0,0,1,1.38-.79c.78,0,1.41.39,1.41,1.69v4.07h-1.12V24c0-.49-.15-.88-.67-.88s-.79.48-.79,1.2v3.58h-1.14V24c0-.58-.18-.89-.66-.89s-.8.45-.8,1.25v3.52h-1.13Z"/><path class="cls-1" d="M262.07,29.9V23.83c0-.77,0-1.29,0-1.64h1.1a5.82,5.82,0,0,1,0,.67,1.3,1.3,0,0,1,1.3-.77c1.06,0,1.65.93,1.65,2.84,0,2.15-.72,3-1.81,3a1.13,1.13,0,0,1-1.11-.6V29.9Zm2-6.83c-.73,0-.91.69-.91,1.88s.09,2,.88,2c.63,0,.94-.71.94-2S264.69,23.07,264.08,23.07Z"/><path class="cls-1" d="M270.92,26.22c0,.79,0,1.34,0,1.63h-1.09a5.55,5.55,0,0,1-.06-.66,1.26,1.26,0,0,1-1.28.75c-.75,0-1.41-.35-1.41-1.69V22.19h1.14V26c0,.61.15,1,.67,1s.87-.31.87-1.32V22.19h1.15Z"/><path class="cls-1" d="M271.62,22.19h.76V20.75h1.13v1.44h.92v.95h-.92v3.3c0,.35.07.55.49.55a1.78,1.78,0,0,0,.34,0v.84a2,2,0,0,1-.75.11c-.83,0-1.21-.31-1.21-1.28v-3.5h-.76Z"/><path class="cls-1" d="M275.14,22.19h1.14v5.66h-1.14Zm0-.91V20h1.15v1.26Z"/><path class="cls-1" d="M277.5,24c0-1.16,0-1.47,0-1.76h1.1a3.6,3.6,0,0,1,0,.64,1.32,1.32,0,0,1,1.28-.74c.88,0,1.46.54,1.46,1.72v4h-1.15V24.06c0-.6-.15-1-.71-1s-.86.35-.86,1.32v3.46H277.5Z"/><path class="cls-1" d="M286.39,27.42c0,1.57-.43,2.57-2.11,2.57s-1.89-.95-1.92-1.62h1.14c0,.22.12.69.83.69s.94-.6.94-1.64v-.34a1.23,1.23,0,0,1-1.24.73c-1.19,0-1.72-1-1.72-2.73,0-2,.72-3,1.84-3a1,1,0,0,1,1.12.65,3.84,3.84,0,0,1,.05-.55h1.1c0,.33,0,.9,0,1.68Zm-2-.58c.74,0,.91-.71.91-1.95s-.1-1.82-.85-1.82-1,.64-1,2S283.8,26.84,284.38,26.84Z"/><rect class="cls-2" x="191.33" y="1.42" width="0.72" height="32.81"/><path d="M32.33,34.13l4.12-9.67h6.82c9.88,0,13.62-4.05,16.21-10.14,1-2.25,2.57-6,.45-9.23s-6.59-3.56-9.77-3.56H13.9l-5.12,12h6.56l-3.65,8.58H5.12L0,34.13Z"/><path class="cls-2" d="M58.07,6.32c-1.15-1.75-3.67-2.56-7.91-2.56H15.37l-3.22,7.55h6.57l-5.56,13H6.59L3.37,31.91H30.86l3.22-7.56H27.41l.9-2.12h15c9.63,0,12.19-4.15,14.16-8.78,1.07-2.49,2-5.1.64-7.13M33,11.31H44c1.52,0,1.3.76,1.1,1.23a3.69,3.69,0,0,1-3.52,2.14h-10Z"/><path class="cls-3" d="M50.16,4.92h-34L13.9,10.15h6.57L13.93,25.5H7.36L5.12,30.75h25l2.23-5.25H25.66l1.89-4.43H43.27c9,0,11.29-3.81,13.1-8.07s2.8-8.08-6.21-8.08M41.53,15.84H29.78l2.42-5.69H44c2.08,0,2.92,1.07,2.16,2.85a4.8,4.8,0,0,1-4.58,2.84"/><path d="M71.25,4.06l-2.06-.59V2h8c5.23,0,7.16,1.67,7.16,5.62,0,3.7-2.11,5.61-6.24,5.61H74.89v5.92l2.08.6v1.38H69.14V19.73l2.11-.6ZM74.89,4v7.39l3.82-.29c1-.44,1.93-1,1.93-3.39C80.64,5.9,80.56,4,77.06,4Z"/><path d="M114.22,13h-2.6v6.17l2.08.6v1.38h-7.83V19.73l2.11-.6V4.06l-2.09-.59V2h8.39c5,0,6.78,1.77,6.78,5.15a4.64,4.64,0,0,1-3.38,4.92L121.21,19l2.29.76v1.38h-5.33Zm-2.6-9V11.3l3.87-.26c1.23-.61,1.82-1.59,1.82-3.59S116.63,4,114.45,4Z"/><path d="M125.06,19.73l2.08-.58V4.06l-2-.59V2h9.24c5.23,0,8.28,3.16,8.28,9.36,0,7-3.16,9.77-8.68,9.77h-8.87ZM130.81,4V19.13h2.74c1.88,0,5.12-.31,5.12-7.21,0-5.44-1-7.91-5.12-7.91Z"/><path d="M77.23,31.07c0,2.32-1.34,3.18-3.55,3.18s-3.54-1.3-3.54-3.18V26.41l-1-.31v-.88h4.07v.88l-1,.31v4.66c0,1.2.46,1.86,1.77,1.86.64,0,1.73-.2,1.73-1.92v-4.6l-1-.31v-.88h3.5v.88l-1,.31Z"/><path d="M84.26,28.67V33l1,.3v.87H81.81v-.87l1-.3V26.88l-.43-.54-.6-.19v-.93H84l4.34,5.46V26.41l-1-.3v-.89h3.43v.89l-1,.3v7.72H88.66Z"/><path d="M98.25,33l1,.3v.87H95.16v-.87l1-.3V26.4l-1-.3v-.88h4.08v.88l-1,.3Z"/><path d="M153.3,33l1,.3v.87h-4.09v-.87l1-.3V26.4l-1-.3v-.88h4.09v.88l-1,.3Z"/><path d="M108.6,34.12h-1.92l-2.83-7.71-1-.31v-.88h4.31v.88l-1,.31L108,31.89l1.91-5.48-1-.31v-.88h3.5v.88l-1,.31Z"/><path d="M116.69,26.41l-1-.3v-.89h7l.07,2.75h-1.11l-.54-1.57h-2.31v2.5h2.31v1.26h-2.31V33h2.37l.71-1.56H123l-.16,2.71h-7.1v-.87l1-.25Z"/><path d="M131.31,30.49h-.76V33l1,.3v.87h-4.09v-.87l1-.3V26.41l-1-.3v-.89h4.06c2.49,0,3.26,1,3.26,2.46A2.13,2.13,0,0,1,133.34,30l1.43,2.9,1.25.39v.82h-3Zm-.76-4.08v3.11L132,29.4a1.87,1.87,0,0,0,.69-1.55c0-.89-.23-1.44-1.15-1.44Z"/><path d="M139.64,31.35h1.24l.26,1.25a3.56,3.56,0,0,0,1.88.52h.29a1.34,1.34,0,0,0,.55-1.07c0-2.08-4.25-1.16-4.25-4.2,0-1.4,1.27-2.73,3.39-2.73a5.58,5.58,0,0,1,2.41.61v2.35h-1.16l-.42-1.49a4.12,4.12,0,0,0-1.45-.29h-.24a1.26,1.26,0,0,0-.59,1.05c0,1.78,4.22,1.14,4.22,4.12,0,1.61-1.45,2.77-3.41,2.77a5.07,5.07,0,0,1-2.71-.81Z"/><path d="M161.36,26.42h-1.15L159.68,28h-1.12V25.22h7.75V28h-1.1l-.51-1.59h-1.25V33l1,.3v.87h-4.09v-.87l1-.3Z"/><path d="M173.29,30.69,171,26.41l-1-.31v-.88h4.3v.88l-1,.31,1.47,2.9,1.48-2.9-1-.31v-.88h3.51v.88l-1,.31-2.35,4.26V33l1,.3v.87h-4.09v-.87l1-.3Z"/><polygon points="177.05 15.56 175.7 19.13 169.71 19.13 169.71 12.25 173.1 12.25 173.54 14.18 175.05 14.18 175.05 8.38 173.54 8.38 173.1 10.24 169.71 10.24 169.71 4.01 175.44 4.01 176.53 7.71 178.59 7.71 178.47 1.98 163.99 1.98 163.99 3.46 166.04 4.06 166.04 19.16 163.96 19.73 163.96 21.11 178.75 21.11 179.09 15.56 177.05 15.56"/><path d="M102.17,14.53c0,4.85-2.31,6.86-7.06,6.86-4.37,0-7.53-1.74-7.53-6.35v-11l-2.09-.59V2H93.3V3.47l-2.08.59V15c0,2.75,1.27,4,4.32,4,2.1,0,4-1.24,4-4.23V4.06l-2-.59V2h6.73V3.47l-2.08.59Z"/><path d="M160.27,14.53c0,4.85-2.32,6.86-7.07,6.86-4.37,0-7.53-1.74-7.53-6.35v-11l-2.08-.59V2h7.8V3.47l-2.08.59V15c0,2.75,1.28,4,4.32,4,2.1,0,4-1.24,4-4.23V4.06l-2-.59V2h6.74V3.47l-2.08.59Z"/><path class="cls-2" d="M181.14,34.09a1.91,1.91,0,1,1,1.91-1.91A1.91,1.91,0,0,1,181.14,34.09Zm0-3.42a1.52,1.52,0,1,0,1.51,1.51A1.51,1.51,0,0,0,181.14,30.67Z"/><path class="cls-2" d="M180.9,32.36v.71h-.38V31.3h.78c.39,0,.59.21.59.48a.43.43,0,0,1-.25.42c.08,0,.22.13.22.44v.09a1.72,1.72,0,0,0,0,.34h-.36a1.28,1.28,0,0,1,0-.4v0c0-.19,0-.28-.33-.28Zm0-.31h.32c.21,0,.29-.08.29-.22s-.1-.23-.28-.23h-.33Z"/></svg>